<svg version="1" xmlns="http://www.w3.org/2000/svg" width="310.667" height="310.667" viewBox="0 0 233.000000 233.000000"><path d="M199 1.6c-5.8 1.2-18.1 3.5-26.5 4.9-1.6.3-5.3 1-8 1.6-4.9 1.1-5.1 1.3-4.8 4.3.3 4.6-2.4 13.3-6.1 19-14 21.7-49.5 36.3-95.3 39.2l-10.3.7-.1-3.4V34.5c0-16.5-.2-30.7-.5-31.7-.4-1.4-2-1.6-11.7-1.5l-11.2.2-.2 47.9-.1 47.9 25.1-.7c26.6-.7 30.7-.9 45.5-2.6 10.7-1.3 11.6-1.5 24.2-4.1 27.6-5.7 48.7-16.7 63.8-33.5 11.8-13 19.3-29.5 24.6-53.7.7-3.1 1-3.1-8.4-1.1zM24.3 149.4V198H48v-71.2l9.8.6c33.5 2 61.4 10.3 80.7 24.1 12.5 8.9 20.5 21.2 20.8 32 .1 3 .3 5.5.3 5.5.1 0 4.6.9 10 2 5.5 1 11.5 2.2 13.4 2.5 1.9.3 6.9 1.2 11 1.9 15.3 2.9 14.1 2.9 13.4-.2-7.9-34.3-18.8-52.1-41.6-68.2-6.8-4.8-9-6-20-10.9-8.6-3.7-24.7-8-37.8-10.1-4.1-.6-8.6-1.3-10-1.6-1.4-.2-5.6-.6-9.5-1-3.8-.3-8.8-.7-11-1-2.2-.2-15.1-.7-28.6-1l-24.6-.6v48.6zM24 220.5c0 10 .3 12.5 1.4 12.5 1.8 0 2.3-1.6 2.1-6.8-.1-2.3.2-4.2.6-4.2.4 0 2.9 2.5 5.5 5.5 2.7 3 5.7 5.5 6.7 5.5 2.6 0 2-1-4.2-7.5l-5.4-5.7 5.6-5.4c3.1-3 5.7-5.7 5.7-5.9 0-1.8-4.3.2-8.5 4-2.7 2.4-5.3 4.5-5.7 4.5-.3 0-.6-1.5-.6-3.3 0-5.1-.1-5.7-1.7-5.7-1.3 0-1.5 2.1-1.5 12.5zM63.8 220.5C58.9 231.3 58.4 233 60 233c1.1 0 2.4-1.2 3.2-3 .7-1.7 1.5-3 1.8-3.1.3-.1 2.7-.2 5.4-.3 4.6-.1 5 .1 6.4 3.1.9 1.9 2.3 3.3 3.4 3.3 1.5 0 1.3-1-1.8-7.7-2-4.3-4.6-9.9-5.8-12.5-1.1-2.7-2.3-4.8-2.6-4.8-.3.1-3.1 5.7-6.2 12.5zm7.2-4.1c0 .2.7 2 1.5 4l1.6 3.7-3.9-.2-3.9-.3 1.6-3.8c.9-2.1 1.9-3.8 2.4-3.8.4 0 .7.2.7.4zM100 220.4c0 10.5.2 12.6 1.5 12.6.8 0 1.6-.6 1.6-1.3.2-2.2.6-6.2.7-7.7.1-.8 1.8.9 3.7 3.8 2.3 3.4 4.3 5.2 5.6 5.2 1.8 0 1.6-.5-1.6-5.2l-3.5-5.3 2.5-1.2c3.1-1.7 4.7-4.6 4-7.6-.8-3.1-3.7-4.7-9.6-5.4l-4.9-.6v12.7zm10.1-7.2c1.9 2.9-.2 5.9-4.5 6.5-2 .3-2.2-.1-2.2-4.2 0-4.5 0-4.6 2.9-4.1 1.7.3 3.4 1.1 3.8 1.8zM133.8 219.5c-.3 12.7-.2 13.5 1.7 13.5 1 0 1.4-2.3 1.7-9.2.4-12.1 0-15.8-1.7-15.8-1.1 0-1.4 2.6-1.7 11.5zM155.5 209c-1 1.7.4 2.9 2.9 2.4 2.9-.5 3.2.8 3 12.9-.1 7.9 0 8.7 1.7 8.7s1.9-.9 1.9-10.9v-11l2.8.2c1.8.1 2.7-.3 2.7-1.3 0-1.2-1.6-1.6-7.2-1.8-4.2-.2-7.4.1-7.8.8zM189 220.4c0 11.6.1 12.6 1.8 12.6 1.6 0 1.9-.8 1.8-5.8l-.1-5.7 6.1-.3 6.1-.3-.1 5.8c-.1 4.7.2 5.8 1.7 6.1 1.5.3 1.7-.8 1.7-12.2 0-10.5-.2-12.6-1.5-12.6-.8 0-1.5.3-1.6.7 0 .5-.2 2.4-.4 4.3-.1 1.9-.3 3.8-.4 4.2-.1.5-9 .5-11.2-.1-.3 0-.5-2-.5-4.3.1-3.3-.3-4.3-1.6-4.6-1.6-.3-1.8.8-1.8 12.2z"/></svg>